<?xml version="1.0" standalone="no"?>
<!DOCTYPE svg PUBLIC "-//W3C//DTD SVG 20010904//EN"
 "http://www.w3.org/TR/2001/REC-SVG-20010904/DTD/svg10.dtd">
<svg version="1.0" xmlns="http://www.w3.org/2000/svg"
 width="200.000000pt" height="200.000000pt" viewBox="0 0 200.000000 200.000000"
 preserveAspectRatio="xMidYMid meet">
<metadata>
Created by potrace 1.11, written by Peter Selinger 2001-2013
</metadata>
<g transform="translate(0.000000,200.000000) scale(0.100000,-0.100000)"
fill="#000000" stroke="none">
<path d="M705 1787 c-180 -61 -297 -219 -350 -473 -22 -108 -29 -180 -30 -306
0 -104 1 -107 29 -137 29 -30 29 -30 22 -123 -4 -51 -9 -115 -12 -143 -20
-165 113 -299 316 -321 30 -4 64 -12 75 -19 126 -77 324 -81 467 -10 26 13 68
27 95 31 78 11 82 12 141 39 68 31 95 55 130 114 32 55 48 126 51 221 2 98 10
160 24 185 6 11 11 65 11 120 0 77 -7 121 -26 190 -31 106 -31 124 -5 146 20
15 20 16 -6 60 -13 24 -37 80 -52 124 -36 105 -76 161 -170 233 -23 18 -105
51 -161 66 -44 12 -87 14 -174 10 -156 -7 -144 -7 -245 0 -63 4 -102 2 -130
-7z"/>
</g>
</svg>
